<?xml version="1.0" standalone="no"?>
<!DOCTYPE svg PUBLIC "-//W3C//DTD SVG 20010904//EN"
 "http://www.w3.org/TR/2001/REC-SVG-20010904/DTD/svg10.dtd">
<svg version="1.0" xmlns="http://www.w3.org/2000/svg"
 width="1000.000000pt" height="450.000000pt" viewBox="0 0 1000.000000 450.000000"
 preserveAspectRatio="xMidYMid meet">

<g transform="translate(0.000000,450.000000) scale(0.100000,-0.100000)"
fill="#000000" stroke="none">
<path d="M541 4129 c-108 -21 -209 -65 -247 -107 -13 -15 -40 -58 -59 -97 -34
-69 -34 -71 -25 -147 18 -133 48 -229 111 -356 41 -82 77 -139 108 -171 103
-106 298 -218 461 -267 103 -31 130 -56 130 -124 0 -65 -28 -441 -46 -609 -9
-88 -12 -175 -9 -220 9 -95 -10 -389 -31 -488 -12 -61 -13 -94 -4 -191 34
-381 62 -515 138 -667 70 -142 124 -195 195 -195 44 0 97 41 97 75 0 30 -12
38 -66 40 -43 2 -84 26 -84 49 0 7 -16 51 -36 99 -24 61 -34 96 -29 115 3 15
7 133 9 262 4 227 6 245 54 535 74 438 85 522 78 586 -15 132 68 375 192 561
40 60 49 68 70 63 165 -41 371 -68 483 -64 71 3 95 9 151 37 90 44 138 100
138 160 0 60 -35 227 -66 314 -29 82 -94 205 -152 288 -64 92 -277 236 -481
326 -296 130 -874 234 -1080 193z"/>
<path d="M6785 3966 c-80 -28 -127 -71 -146 -136 -23 -75 13 -236 66 -300 7
-8 23 -44 36 -79 17 -46 35 -72 64 -96 68 -56 179 -120 252 -145 l70 -23 89
18 c78 17 94 24 127 58 20 21 48 60 62 88 38 75 41 120 11 222 -32 107 -59
163 -87 178 -12 6 -78 53 -148 105 -185 138 -255 158 -396 110z"/>
<path d="M4453 3189 c-75 -14 -96 -31 -138 -110 -13 -25 -35 -60 -49 -76 -22
-26 -25 -37 -20 -79 4 -32 -3 -105 -19 -204 -15 -85 -34 -209 -42 -275 -9 -66
-19 -123 -22 -127 -2 -5 3 -45 13 -91 13 -64 15 -112 11 -217 -3 -74 -11 -148
-16 -163 -7 -18 -8 -48 -3 -83 5 -30 5 -78 1 -107 -17 -99 30 -507 77 -671 31
-109 76 -209 177 -393 80 -145 187 -372 226 -478 28 -75 78 -115 144 -115 42
0 44 1 67 49 14 32 20 58 16 74 -3 15 10 91 33 189 61 252 73 315 78 431 6
104 7 108 32 121 41 20 186 71 315 111 183 56 245 90 418 224 194 150 244 219
284 386 25 107 12 236 -41 395 -76 228 -290 503 -515 662 -170 121 -317 182
-468 194 -107 9 -129 19 -137 62 -13 72 -65 143 -149 207 -92 71 -189 101
-273 84z m764 -514 c100 -34 173 -82 261 -174 155 -162 255 -306 318 -458 35
-85 36 -91 31 -183 -5 -106 -35 -202 -83 -272 -75 -108 -619 -528 -684 -528
-31 0 -45 26 -31 58 34 73 54 518 31 687 -5 39 -23 183 -40 320 -17 138 -33
261 -35 275 -11 57 -17 191 -11 233 6 38 12 47 34 56 49 17 130 12 209 -14z"/>
<path d="M6815 2886 c-86 -21 -117 -42 -163 -111 l-43 -64 6 -153 c6 -136 5
-162 -14 -233 -24 -95 -28 -133 -41 -368 -6 -98 -15 -198 -21 -222 -13 -50
-10 -69 48 -430 19 -121 46 -256 60 -300 36 -117 109 -251 169 -311 54 -55
179 -123 266 -145 93 -23 194 14 235 86 39 68 99 270 147 491 l45 212 -9 118
c-5 66 -14 252 -20 415 -13 387 -38 522 -136 727 -42 86 -50 97 -127 158 -45
36 -117 83 -161 104 -86 44 -143 50 -241 26z"/>
<path d="M9160 2890 c-219 -12 -296 -38 -476 -159 -163 -110 -220 -164 -265
-252 -103 -205 -157 -373 -175 -544 -8 -77 -25 -185 -37 -240 -15 -70 -22
-133 -22 -210 1 -163 21 -219 141 -386 107 -150 123 -166 246 -249 163 -109
329 -156 517 -147 140 7 207 24 326 83 125 62 154 90 205 207 36 82 51 104 96
143 47 39 54 50 54 82 0 44 -33 115 -66 141 -21 17 -42 20 -124 20 -55 0 -111
3 -125 7 -39 10 -127 -38 -177 -97 -109 -128 -133 -150 -197 -182 -54 -26 -80
-33 -148 -36 -99 -4 -163 15 -221 65 -50 43 -108 155 -124 240 -10 54 -8 72
12 155 28 116 92 304 127 373 58 116 140 211 246 284 63 44 51 43 222 21 44
-6 131 -23 194 -40 130 -33 175 -36 251 -13 80 24 100 41 137 121 48 104 46
158 -11 277 -37 78 -52 98 -102 137 -87 68 -150 104 -237 135 -51 18 -84 35
-94 51 -8 12 -20 22 -27 21 -6 0 -72 -4 -146 -8z"/>
<path d="M2484 2849 c-36 -10 -58 -34 -106 -114 l-35 -60 8 -80 c5 -44 16
-120 25 -168 9 -50 14 -111 11 -140 -4 -42 7 -103 63 -327 122 -491 117 -482
381 -779 181 -203 209 -239 209 -267 0 -18 -30 -151 -67 -296 l-68 -263 1
-159 c0 -155 1 -159 24 -178 l24 -19 27 108 c28 115 62 215 100 300 19 41 31
55 60 66 29 12 41 25 62 71 63 137 239 357 342 428 53 36 79 114 70 215 l-7
78 90 260 c155 447 239 722 301 988 33 140 27 168 -52 236 -38 32 -56 41 -85
41 -50 0 -75 -19 -111 -86 -28 -53 -30 -62 -25 -128 5 -61 1 -91 -30 -211 -55
-212 -200 -606 -233 -632 -10 -8 -22 -9 -32 -3 -33 17 -153 225 -255 440 -14
30 -38 64 -54 74 -17 11 -41 44 -55 76 -25 54 -236 368 -281 419 -11 13 -54
45 -95 72 -65 43 -80 49 -125 48 -28 0 -65 -5 -82 -10z"/>
</g>
</svg>
